<svg xmlns="http://www.w3.org/2000/svg" width="80" height="34" viewBox="0 0 136.3 65.7"><path fill="#e74917" d="M19.9 5.6c7.7 0 17.1 2.1 17.1 9.7v18.2H23.5v-7.8s-3.3 1.2-5.8 1.9c-1.7.5-3 1.4-3.1 3.1-.1 1.4 1.5 2.8 1.5 2.8H2.9s-3-1.1-2.9-4.2c.3-6 5-8.2 16.5-9.5 6.2-.8 6.9-1.4 6.9-2.9 0-1.3-.8-2.7-4.3-2.8-5.1 0-4.7 3.4-4.7 3.4h-13c.1-.1.2-11.9 18.5-11.9m41.3.3c-4.5.7-6.1 4.4-6.1 4.3V6.4H42.5v27.1h13.7v-13c0-2.3.7-3.3 1.5-4.1 1-1 2.6-1.6 4.4-1.6H66V6.4c.1 0-1.9-.9-4.8-.5M88.7 0H75v6.4h-5.7v8.3H75v11c0 2.4 0 4.3 1.7 6.2 1.5 1.6 3.5 1.5 5.9 1.5h5.9V14.7h8.2V6.4h-8.2V0zm28.2 5.8C139.7 6 136 26.6 136 26.6h-24.3v6.8h-9.9s-4.1-3.7-4-11c.1-16.9 18.4-16.6 19.1-16.6m6 14s.6-5.5-5.9-5.6c-6.3 0-5.6 5.5-5.6 5.6h11.5"></path><path fill="#000" d="M10.5 61.2v4.5C2.9 65.4.3 60.4.3 51.2S2.9 37 10.5 36.7v4.5c-3.7.3-5 3.2-5 10 0 6.7 1.3 9.7 5 10m1.2-20v-4.5c2.2.1 4.5.7 5.8 1.4l-2.1 4.1c-.8-.4-2.3-.9-3.7-1m0 24.5v-4.4c2.3-.2 4-1.2 4-1.2l2.1 4s-2.7 1.4-6.1 1.6m12.4-.4H19l7.8-28.2H28l1.9 7-5.8 21.2zm4-10.3h11L42 65.3h-5.1l-1.6-5.8h-8.4l1.2-4.5zm6.1-17.9 4.6 16.8h-5.1l-4.6-16.8h5.1zm21.5 20.8L44.8 38.6v-1.4h4.7L56 49.7l6.6-12.6h4.7v1.4L56.4 57.9h-.7zm-6 7.4h-5V40.6l5 8.8v15.9zm17.6 0h-5V49.5l5-8.8v24.6zm23.9-19c0 6.8-3.4 9.2-10.2 9.2h-2.8V51H81c4 0 5.2-1.3 5.2-4.7 0-3.6-1.2-4.7-5.2-4.7h-8.9v-4.5h9c7.2 0 10.1 2.7 10.1 9.2m-19.1-3.7h5v22.7h-5V42.6zm32.2 18.6v4.5c-6.1-.2-9.4-3-9.4-11V37.1h5V54c-.1 5.5.9 7.1 4.4 7.2m1.2 4.5v-4.5c3.5-.2 4.5-1.8 4.5-7.2V37.1h5v17.6c-.1 8-3.5 10.8-9.5 11m30.4-8c0 4.5-3.8 8-10.1 8-3.3 0-6.3-1.4-7.8-2.4l2-3.9s3 2 5.8 2c3.4 0 4.8-1.9 4.8-3.7 0-1.6-1.6-2.9-3.7-4.2l2.8-4.2c4.7 2.9 6.2 5.3 6.2 8.4m-17.4-13.8c0-3.5 2.6-7.2 8.7-7.2 4 0 6.4 1.1 7.6 1.8l-1.9 4s-2.8-1.5-5.1-1.5c-3 0-4 1.6-4 2.7 0 1.8 1.9 3.3 4.9 5l-2.8 4.2c-5.5-3.1-7.4-5.3-7.4-9"></path></svg> 
